Run_40001
nRows=4
nColumns=164

# SIMM Motion File Header:
name Run_40001
datacolumns 164
datarows 4
otherdata 1
range 1.45000000 1.47500000
endheader
time	pelvis_tilt	pelvis_list	pelvis_rotation	pelvis_tx	pelvis_ty	pelvis_tz	hip_flexion_r	hip_adduction_r	hip_rotation_r	knee_angle_r	ankle_angle_r	hip_flexion_l	hip_adduction_l	hip_rotation_l	knee_angle_l	ankle_angle_l	lumbar_extension	lumbar_bending	lumbar_rotation	arm_flex_r	arm_add_r	arm_rot_r	elbow_flex_r	pro_sup_r	arm_flex_l	arm_add_l	arm_rot_l	elbow_flex_l	pro_sup_l	subtalar_angle_r	mtp_angle_r	subtalar_angle_l	mtp_angle_l	wrist_flex_r	wrist_dev_r	wrist_flex_l	wrist_dev_l	LASI_tx	LASI_ty	LASI_tz	RASI_tx	RASI_ty	RASI_tz	LPSI_tx	LPSI_ty	LPSI_tz	RPSI_tx	RPSI_ty	RPSI_tz	RTH1_tx	RTH1_ty	RTH1_tz	RTH2_tx	RTH2_ty	RTH2_tz	RTH3_tx	RTH3_ty	RTH3_tz	LTH1_tx	LTH1_ty	LTH1_tz	LTH2_tx	LTH2_ty	LTH2_tz	LTH3_tx	LTH3_ty	LTH3_tz	RTB1_tx	RTB1_ty	RTB1_tz	RTB2_tx	RTB2_ty	RTB2_tz	RTB3_tx	RTB3_ty	RTB3_tz	LTB1_tx	LTB1_ty	LTB1_tz	LTB2_tx	LTB2_ty	LTB2_tz	LTB3_tx	LTB3_ty	LTB3_tz	RCAL_tx	RCAL_ty	RCAL_tz	RTOE_tx	RTOE_ty	RTOE_tz	RMT5_tx	RMT5_ty	RMT5_tz	LCAL_tx	LCAL_ty	LCAL_tz	LTOE_tx	LTOE_ty	LTOE_tz	LMT5_tx	LMT5_ty	LMT5_tz	LACR_tx	LACR_ty	LACR_tz	RACR_tx	RACR_ty	RACR_tz	CLAV_tx	CLAV_ty	CLAV_tz	C7_tx	C7_ty	C7_tz	RUA1_tx	RUA1_ty	RUA1_tz	RUA2_tx	RUA2_ty	RUA2_tz	RUA3_tx	RUA3_ty	RUA3_tz	RLEL_tx	RLEL_ty	RLEL_tz	RMEL_tx	RMEL_ty	RMEL_tz	LUA1_tx	LUA1_ty	LUA1_tz	LUA2_tx	LUA2_ty	LUA2_tz	LUA3_tx	LUA3_ty	LUA3_tz	LLEL_tx	LLEL_ty	LLEL_tz	LMEL_tx	LMEL_ty	LMEL_tz	RFAsuperior_tx	RFAsuperior_ty	RFAsuperior_tz	RFAradius_tx	RFAradius_ty	RFAradius_tz	RFAulna_tx	RFAulna_ty	RFAulna_tz	LFAsuperior_tx	LFAsuperior_ty	LFAsuperior_tz	LFAradius_tx	LFAradius_ty	LFAradius_tz	LFAulna_tx	LFAulna_ty	LFAulna_tz
      1.45000000	      0.27074864	     -3.21692963	     -2.38297613	      0.72534557	      0.93877357	     -0.37659112	     28.72937721	      9.20708423	     -0.53849665	    -43.90954549	     12.38732847	      1.99010058	     -3.99649150	     -5.57713837	   -112.57220993	      0.81447896	    -15.91062411	      5.39502177	     -9.75754087	    -26.55549587	    -36.39780899	    -10.00279667	    112.23864479	     67.74069159	    -29.10404369	    -27.88960023	      1.37405057	    120.69658508	     92.50835481	      0.00000000	      0.00000000	      0.00000000	      0.00000000	      0.00000000	      0.00000000	      0.00000000	      0.00000000	      0.74497806	      0.95459261	     -0.49567688	      0.72124504	      0.97138455	     -0.25706074	      0.56887508	      0.98082815	     -0.43346822	      0.55974631	      0.98467131	     -0.34674703	      0.72916070	      0.79774157	     -0.21225368	      0.83477676	      0.71471622	     -0.24702207	      0.80684734	      0.57093115	     -0.25364304	      0.69965219	      0.80086425	     -0.54131986	      0.73837140	      0.68563160	     -0.53479620	      0.65820333	      0.55771755	     -0.54039332	      0.87272186	      0.37801449	     -0.33840810	      0.82923623	      0.31850304	     -0.28800682	      0.81293359	      0.20983596	     -0.36635521	      0.53280136	      0.43687292	     -0.46691820	      0.43994809	      0.50720962	     -0.51459316	      0.36203174	      0.51865751	     -0.44192277	      0.66496543	      0.10041675	     -0.36939324	      0.88469895	      0.06921112	     -0.37748121	      0.85030143	      0.06443442	     -0.28372281	      0.28877808	      0.65849853	     -0.43934876	      0.20819780	      0.45640925	     -0.43197037	      0.18265852	      0.49426299	     -0.51371315	      0.76512723	      1.41228122	     -0.55236472	      0.68071261	      1.41004281	     -0.18825111	      0.81176375	      1.36713134	     -0.32190130	      0.69494744	      1.46241399	     -0.37765071	      0.62493192	      1.32636711	     -0.11670898	      0.62542040	      1.25841302	     -0.10081497	      0.52048704	      1.27277694	     -0.09060302	      0.51534388	      1.20069591	     -0.03131146	      0.48151643	      1.16749565	     -0.10743020	      0.73054858	      1.35239367	     -0.61561178	      0.65041554	      1.31311987	     -0.62280737	      0.70493257	      1.27155604	     -0.66531012	      0.66159881	      1.18029987	     -0.72121057	      0.58928326	      1.15817313	     -0.67069163	      0.59169063	      1.16537166	     -0.02279640	      0.74527705	      1.09765899	     -0.06036702	      0.69998288	      1.04638511	     -0.04535099	      0.72308836	      1.15414394	     -0.69188387	      0.81322212	      1.09827593	     -0.54410681	      0.79723388	      1.04380467	     -0.58158822
      1.45833300	     -0.16663544	     -3.89791527	     -2.91035021	      0.72302901	      0.93406450	     -0.37612410	     28.38606495	     10.20256859	     -0.30624136	    -46.42577884	     14.94524760	      5.89956338	     -4.82645743	     -5.35957252	   -116.93535332	      2.46825487	    -15.77068258	      6.10940883	     -8.51949918	    -23.05089271	    -36.35448579	     -8.47928704	    111.93765077	     68.58389736	    -29.79890390	    -26.03950105	      0.41125013	    118.00560241	     93.84263121	      0.00000000	      0.00000000	      0.00000000	      0.00000000	      0.00000000	      0.00000000	      0.00000000	      0.00000000	      0.74325943	      0.94844423	     -0.49463037	      0.72017068	      0.96731757	     -0.25536999	      0.56633740	      0.97724988	     -0.43490946	      0.55712462	      0.98256486	     -0.34835681	      0.72509118	      0.79513716	     -0.21198466	      0.82980630	      0.71024665	     -0.24748547	      0.79902527	      0.56666946	     -0.25409187	      0.70438253	      0.79713100	     -0.54076237	      0.74710900	      0.68436569	     -0.53553109	      0.67430359	      0.55233464	     -0.54005997	      0.85682789	      0.37280171	     -0.33879449	      0.80905497	      0.31599743	     -0.28793128	      0.78828021	      0.20792099	     -0.36661519	      0.55677837	      0.43564696	     -0.46652286	      0.46464941	      0.50531800	     -0.51623015	      0.38701320	      0.51922460	     -0.44317474	      0.63320025	      0.10115223	     -0.36993734	      0.85231199	      0.06807774	     -0.37669879	      0.81794958	      0.06438572	     -0.28395611	      0.31323093	      0.66042682	     -0.44327350	      0.23418209	      0.45775385	     -0.43364953	      0.21170417	      0.49339237	     -0.51754731	      0.76222890	      1.40772967	     -0.55325677	      0.68218751	      1.40446025	     -0.18545700	      0.81385380	      1.36027836	     -0.32279642	      0.69525255	      1.45891740	     -0.37563657	      0.62926546	      1.31582672	     -0.11555466	      0.63224094	      1.24772810	     -0.10065536	      0.52743012	      1.25891427	     -0.08713652	      0.52783038	      1.18665314	     -0.02867121	      0.49283325	      1.15132908	     -0.10298955	      0.72527283	      1.34733471	     -0.61512719	      0.64419902	      1.30877535	     -0.61817593	      0.69665768	      1.26683606	     -0.66281001	      0.65022260	      1.17630948	     -0.71743277	      0.58003236	      1.15457917	     -0.66472717	      0.60626135	      1.15533812	     -0.02405846	      0.75962083	      1.09317025	     -0.06434064	      0.71694235	      1.04042383	     -0.04752521	      0.71129794	      1.14668860	     -0.68958516	      0.80586209	      1.08302828	     -0.54842058	      0.78650364	      1.03059964	     -0.58791966
      1.46666700	     -0.71453408	     -4.44962141	     -3.38776179	      0.72097976	      0.93088404	     -0.37574249	     27.32631241	     10.96870668	     -0.00119036	    -47.53647187	     17.07534476	     10.15710056	     -5.47756368	     -4.94406977	   -120.51650513	      3.77047371	    -15.46153056	      6.67773395	     -7.34800536	    -19.50436730	    -36.00335237	     -6.88524587	    111.58337463	     69.72101682	    -30.49021938	    -24.15891279	     -0.57256755	    115.25788079	     95.83418824	      0.00000000	      0.00000000	      0.00000000	      0.00000000	      0.00000000	      0.00000000	      0.00000000	      0.00000000	      0.74129227	      0.94381181	     -0.49436880	      0.71850592	      0.96565983	     -0.25259434	      0.56445086	      0.97644873	     -0.43611820	      0.55532649	      0.98292204	     -0.34944946	      0.72097051	      0.79320377	     -0.21216632	      0.82230551	      0.70400587	     -0.24767524	      0.78674460	      0.56124379	     -0.25499788	      0.70828970	      0.79540137	     -0.54052883	      0.75656792	      0.68483280	     -0.53586755	      0.69215372	      0.54958662	     -0.53981949	      0.83834126	      0.36584473	     -0.33817822	      0.78577158	      0.31098115	     -0.28706338	      0.76145494	      0.20414793	     -0.36554504	      0.58217233	      0.43487263	     -0.46578544	      0.49076108	      0.50293009	     -0.51795178	      0.41249428	      0.51802629	     -0.44466483	      0.60117828	      0.10181184	     -0.37033898	      0.81971275	      0.06655262	     -0.37620365	      0.78538350	      0.06386344	     -0.28413800	      0.33560114	      0.65969552	     -0.44854156	      0.26116321	      0.45545296	     -0.43442640	      0.24078353	      0.48779289	     -0.52045622	      0.75906860	      1.40458268	     -0.55403285	      0.68411693	      1.40005472	     -0.18310126	      0.81516827	      1.35538936	     -0.32391262	      0.69606442	      1.45706409	     -0.37354778	      0.63371229	      1.30758409	     -0.11518048	      0.63953933	      1.23931821	     -0.10119906	      0.53485750	      1.24658261	     -0.08556125	      0.54164677	      1.17430709	     -0.02733282	      0.50493179	      1.13669866	     -0.09948351	      0.71985821	      1.34396689	     -0.61459582	      0.63815654	      1.30563068	     -0.61312730	      0.68833170	      1.26402716	     -0.66030207	      0.63898657	      1.17410093	     -0.71307514	      0.57068111	      1.15247133	     -0.65842601	      0.62185161	      1.14727151	     -0.02681522	      0.77473559	      1.09041694	     -0.06978332	      0.73460308	      1.03641192	     -0.05114968	      0.69970063	      1.14159329	     -0.68641526	      0.79750382	      1.06925079	     -0.55240777	      0.77505094	      1.01946444	     -0.59418165
      1.47500000	     -1.20588290	     -4.80614781	     -3.74151955	      0.71925942	      0.92907289	     -0.37560486	     25.53247474	     11.43092858	      0.33525872	    -47.57418595	     19.14250265	     14.52244641	     -5.82087786	     -4.32655449	   -123.26261642	      4.73534612	    -15.14303359	      7.02657734	     -6.30332135	    -16.10768053	    -35.34680954	     -5.42101562	    111.36625266	     70.95478717	    -31.28284399	    -22.38100587	     -1.61826281	    112.80021655	     98.43359825	      0.00000000	      0.00000000	      0.00000000	      0.00000000	      0.00000000	      0.00000000	      0.00000000	      0.00000000	      0.73933841	      0.94101380	     -0.49539490	      0.71647426	      0.96557387	     -0.24982425	      0.56309604	      0.97722917	     -0.43673304	      0.55407361	      0.98449004	     -0.34982309	      0.71619149	      0.79128566	     -0.21252926	      0.81236297	      0.69640985	     -0.24717448	      0.77098727	      0.55533926	     -0.25593371	      0.71125465	      0.79520070	     -0.54054754	      0.76707647	      0.68694717	     -0.53550023	      0.71174994	      0.54951507	     -0.53981235	      0.81699044	      0.35748433	     -0.33771427	      0.76028641	      0.30408506	     -0.28666189	      0.73227160	      0.19929722	     -0.36469976	      0.60825455	      0.43466975	     -0.46473284	      0.51783018	      0.50022497	     -0.51963147	      0.43791397	      0.51521473	     -0.44636739	      0.56840360	      0.10235898	     -0.37057923	      0.78661653	      0.06538620	     -0.37620864	      0.75218301	      0.06330518	     -0.28416011	      0.35555270	      0.65614992	     -0.45462804	      0.28874216	      0.44966100	     -0.43464963	      0.26943999	      0.47807071	     -0.52251842	      0.75553951	      1.40295195	     -0.55458932	      0.68661198	      1.39698204	     -0.18143572	      0.81574713	      1.35271692	     -0.32513550	      0.69685095	      1.45622847	     -0.37186035	      0.63846043	      1.30170079	     -0.11547299	      0.64732106	      1.23353104	     -0.10221731	      0.54272918	      1.23602281	     -0.08615752	      0.55582039	      1.16397248	     -0.02737479	      0.51766172	      1.12419963	     -0.09755600	      0.71408089	      1.34248887	     -0.61400151	      0.63203324	      1.30393408	     -0.60791984	      0.67966296	      1.26321949	     -0.65789531	      0.62782984	      1.17396322	     -0.70851053	      0.56106285	      1.15220008	     -0.65209442	      0.63740470	      1.14089970	     -0.03038261	      0.79036568	      1.08995703	     -0.07660371	      0.75271516	      1.03470227	     -0.05646298	      0.68842513	      1.13931032	     -0.68303937	      0.78813432	      1.05770946	     -0.55601157	      0.76304449	      1.01101840	     -0.60018423
